<?xml version="1.0" encoding="UTF-8"?> <svg xmlns="http://www.w3.org/2000/svg" width="512" height="512" viewBox="0 0 512 512" fill="none"> <g clip-path="url(#clip0)"> <path d="M491.031 46.37C496.078 51.94 501.486 58.239 507.198 65.336C509.601 68.333 509.34 72.638 506.654 75.324C506.548 75.43 506.442 75.536 506.329 75.635C506.174 75.776 490.41 89.787 465.542 112.478L359.714 211.252C333.015 236.778 307.701 261.498 284.522 284.677C261.343 307.856 236.616 333.177 211.041 359.939L112.259 465.76C89.6239 490.572 75.6139 506.335 75.4729 506.491C72.8219 509.467 68.2909 509.856 65.1739 507.36C58.1049 501.677 51.8139 496.276 46.2579 491.243C21.2909 468.623 11.1039 453.389 10.5879 452.619C8.72892 449.784 8.98992 446.045 11.2449 443.507C11.3859 443.351 25.3969 427.588 48.0809 402.727L147.152 296.588C172.876 269.677 197.666 244.292 220.902 221.057C244.13 197.829 269.522 173.031 296.369 147.371L296.426 147.314L402.5 48.292C427.432 25.551 443.196 11.541 443.351 11.399C445.889 9.14398 449.628 8.88198 452.456 10.749C453.234 11.258 468.446 21.438 491.031 46.37V46.37Z" fill="#C7CDE0"></path> <path d="M491.031 46.37C496.078 51.94 501.486 58.239 507.198 65.336C509.601 68.333 509.34 72.638 506.654 75.324C506.548 75.43 506.442 75.536 506.329 75.635C506.174 75.776 490.41 89.787 465.542 112.478L359.714 211.252C333.015 236.778 307.701 261.498 284.522 284.677C261.343 307.856 236.616 333.177 211.041 359.939L112.259 465.76C89.6241 490.572 75.6141 506.335 75.4731 506.491C72.8221 509.467 68.2911 509.856 65.1741 507.36C58.1051 501.677 51.8141 496.276 46.2581 491.243C86.0831 444.673 241.443 268.121 491.031 46.37V46.37Z" fill="#B1ACCC"></path> <path d="M228.379 470.97C228.379 472.963 227.58 474.865 226.181 476.265C225.983 476.463 225.785 476.647 225.559 476.816C216.553 484.012 207.173 489.985 198.414 494.842C177.95 506.173 160.878 511.383 159.874 511.68C157.52 512.394 154.961 511.899 153.038 510.358C60.861 436.587 2.10399 359.578 1.51699 358.808C0.0749944 356.899 -0.370005 354.418 0.314995 352.121C0.618995 351.124 5.75799 334.265 16.948 313.97C21.84 305.106 27.884 295.584 35.179 286.437C36.614 284.634 38.82 283.588 41.131 283.624C43.45 283.652 45.62 284.748 47.012 286.593C47.705 287.498 116.881 378.135 225.565 465.104C227.347 466.53 228.379 468.693 228.379 470.97V470.97Z" fill="#4CF2A2"></path> <path d="M228.379 470.97C228.379 472.963 227.58 474.865 226.181 476.265C225.983 476.463 225.785 476.647 225.559 476.816C216.553 484.012 207.173 489.985 198.414 494.842C94.832 413.343 16.949 313.97 16.949 313.97C21.841 305.106 27.885 295.584 35.18 286.437C36.615 284.634 38.821 283.588 41.132 283.624C43.451 283.652 45.621 284.748 47.013 286.593C47.706 287.498 116.882 378.135 225.566 465.104C227.347 466.53 228.379 468.693 228.379 470.97V470.97Z" fill="#24AE6B"></path> <path d="M314.019 441.952C315.772 443.422 316.769 445.592 316.719 447.876C316.677 449.827 315.885 451.665 314.528 453.022C314.288 453.262 314.04 453.481 313.765 453.686C306.76 459.023 299.486 463.653 292.311 467.633C269.973 480.074 248.696 486.309 240.022 488.536C237.498 489.179 234.819 488.649 232.734 487.087C220.575 477.982 175.851 443.493 122.177 389.819C64.403 332.045 33.18 290.77 24.796 279.233C23.283 277.155 22.781 274.518 23.418 272.03C25.595 263.505 31.724 242.503 43.946 220.342C48.025 212.955 52.775 205.434 58.282 198.202C59.689 196.357 61.859 195.275 64.17 195.24C66.482 195.219 68.68 196.272 70.115 198.075C71.075 199.291 168.075 320.607 314.019 441.952Z" fill="#4CF2A2"></path> <path d="M314.019 441.952C315.772 443.422 316.769 445.592 316.719 447.876C316.677 449.827 315.885 451.665 314.528 453.022C314.288 453.262 314.04 453.481 313.765 453.686C306.76 459.023 299.486 463.653 292.311 467.633C169.679 366.732 75.5641 258.267 43.9451 220.342C48.0241 212.955 52.7741 205.434 58.2811 198.202C59.6881 196.357 61.8581 195.275 64.1691 195.24C66.4811 195.219 68.6791 196.272 70.1141 198.075C71.0751 199.291 168.075 320.607 314.019 441.952Z" fill="#24AE6B"></path> <path d="M470.97 228.379C472.963 228.379 474.865 227.58 476.265 226.181C476.463 225.983 476.647 225.785 476.816 225.559C484.012 216.553 489.985 207.173 494.842 198.414C506.173 177.95 511.383 160.878 511.68 159.874C512.394 157.52 511.899 154.961 510.358 153.038C436.587 60.861 359.578 2.10399 358.808 1.51699C356.899 0.0749944 354.418 -0.370005 352.121 0.314995C351.124 0.618995 334.265 5.75799 313.97 16.948C305.106 21.84 295.584 27.884 286.437 35.179C284.634 36.614 283.588 38.82 283.624 41.131C283.652 43.45 284.748 45.62 286.593 47.012C287.498 47.705 378.135 116.881 465.104 225.565C466.53 227.347 468.693 228.379 470.97 228.379V228.379Z" fill="#4CF2A2"></path> <path d="M470.97 228.379C472.963 228.379 474.865 227.58 476.265 226.181C476.463 225.983 476.647 225.785 476.816 225.559C484.012 216.553 489.985 207.173 494.842 198.414C413.343 94.832 313.97 16.949 313.97 16.949C305.106 21.841 295.584 27.885 286.437 35.18C284.634 36.615 283.588 38.821 283.624 41.132C283.652 43.451 284.748 45.621 286.593 47.013C287.498 47.706 378.135 116.882 465.104 225.566C466.53 227.347 468.693 228.379 470.97 228.379V228.379Z" fill="#24AE6B"></path> <path d="M441.952 314.019C443.422 315.772 445.592 316.769 447.876 316.719C449.827 316.677 451.665 315.885 453.022 314.528C453.262 314.288 453.481 314.04 453.686 313.765C459.023 306.76 463.653 299.486 467.633 292.311C480.074 269.973 486.309 248.696 488.536 240.022C489.179 237.498 488.649 234.819 487.087 232.734C477.982 220.575 443.493 175.851 389.819 122.177C332.045 64.403 290.77 33.18 279.233 24.796C277.155 23.283 274.518 22.781 272.03 23.418C263.505 25.595 242.503 31.724 220.342 43.946C212.955 48.025 205.434 52.775 198.202 58.282C196.357 59.689 195.275 61.859 195.24 64.17C195.219 66.482 196.272 68.68 198.075 70.115C199.291 71.075 320.607 168.075 441.952 314.019Z" fill="#4CF2A2"></path> <path d="M441.952 314.019C443.422 315.772 445.592 316.769 447.876 316.719C449.827 316.677 451.665 315.885 453.022 314.528C453.262 314.288 453.481 314.04 453.686 313.765C459.023 306.76 463.653 299.486 467.633 292.311C366.732 169.679 258.267 75.564 220.342 43.945C212.955 48.024 205.434 52.774 198.202 58.281C196.357 59.688 195.275 61.858 195.24 64.169C195.219 66.481 196.272 68.679 198.075 70.114C199.291 71.075 320.607 168.075 441.952 314.019Z" fill="#24AE6B"></path> </g> <defs> <clipPath id="clip0"> <rect width="512" height="512" fill="white"></rect> </clipPath> </defs> </svg> 