<?xml version="1.0" encoding="UTF-8"?> <svg xmlns="http://www.w3.org/2000/svg" width="512" height="512" viewBox="0 0 512 512" fill="none"> <path d="M501.028 241.213C501.028 241.212 479.707 234.762 464.04 230.023C461.632 210.544 456.56 191.892 449.187 174.447L475.594 146.295C480.131 141.455 481.19 134.042 477.702 128.001C474.215 121.96 467.264 119.17 460.806 120.681C460.806 120.68 439.102 125.757 423.164 129.487C411.539 114.149 397.852 100.462 382.514 88.8366L391.321 51.1948C392.831 44.7356 390.041 37.785 384 34.2978C377.959 30.8096 370.545 31.8687 365.707 36.4066C365.706 36.4066 349.489 51.6193 337.554 62.8143C320.109 55.4413 301.457 50.3686 281.978 47.9611L270.789 10.9735C268.867 4.62448 262.975 0 256 0C249.025 0 243.133 4.62448 241.213 10.9725C241.212 10.9725 234.762 32.2931 230.023 47.9601C210.544 50.3676 191.892 55.4402 174.447 62.8132L146.295 36.4056C141.455 31.8687 134.042 30.8096 128.001 34.2978C121.96 37.785 119.17 44.7356 120.681 51.1938C120.68 51.1938 125.757 72.8977 129.487 88.8356C114.149 100.461 100.462 114.148 88.8366 129.486L51.1948 120.678C44.7356 119.169 37.786 121.959 34.2978 128C30.8096 134.041 31.8687 141.455 36.4066 146.293C36.4066 146.294 51.6183 162.511 62.8132 174.446C55.4402 191.891 50.3676 210.543 47.9601 230.022L10.9725 241.211C4.62448 243.133 0 249.025 0 256C0 262.975 4.62448 268.867 10.9725 270.787C10.9725 270.788 32.2931 277.238 47.9601 281.977C50.3676 301.456 55.4402 320.108 62.8132 337.553L36.4056 365.705C31.8687 370.545 30.8096 377.958 34.2978 383.999C37.786 390.04 44.7356 392.83 51.1938 391.319C51.1938 391.32 72.8977 386.243 88.8356 382.513C100.461 397.851 114.148 411.538 129.486 423.163L120.678 460.805C119.169 467.264 121.959 474.214 128 477.702C134.041 481.19 141.455 480.131 146.293 475.593C146.294 475.593 162.511 460.381 174.446 449.186C191.891 456.559 210.543 461.631 230.022 464.039L241.211 501.026C243.133 507.375 249.025 512 256 512C262.975 512 268.867 507.375 270.787 501.028C270.788 501.028 277.238 479.707 281.977 464.04C301.456 461.632 320.108 456.56 337.553 449.187L365.705 475.594C370.545 480.131 377.958 481.19 383.999 477.702C390.04 474.215 392.83 467.264 391.319 460.806C391.32 460.806 386.243 439.103 382.513 423.164C397.851 411.539 411.538 397.852 423.163 382.514L460.805 391.321C467.264 392.831 474.214 390.041 477.702 384C481.19 377.959 480.131 370.545 475.593 365.707C475.593 365.706 460.381 349.489 449.186 337.554C456.559 320.109 461.631 301.457 464.039 281.978L501.026 270.789C507.375 268.867 512 262.975 512 256C512 249.025 507.375 243.133 501.028 241.213V241.213ZM256 403.831C174.355 403.831 108.169 337.645 108.169 256C108.169 174.355 174.355 108.169 256 108.169C337.645 108.169 403.831 174.355 403.831 256C403.831 337.645 337.645 403.831 256 403.831Z" fill="#B5CDFF"></path> <path d="M256 77.2635C157.287 77.2635 77.2637 157.287 77.2637 256C77.2637 354.714 157.287 434.736 256 434.736C354.713 434.736 434.736 354.714 434.736 256C434.736 157.287 354.713 77.2635 256 77.2635ZM256 388.378C182.889 388.378 123.622 329.111 123.622 256C123.622 182.889 182.889 123.622 256 123.622C329.111 123.622 388.378 182.889 388.378 256C388.378 329.111 329.111 388.378 256 388.378Z" fill="#8B9BBD"></path> <path d="M169.164 205.861C168.498 207.008 168.134 208.328 168.129 209.7V302.276C168.129 305.036 169.601 307.586 171.992 308.967L252.14 355.243C253.336 355.933 254.669 356.264 256.003 356.262L312.972 205.265L169.164 205.861Z" fill="#5FFDB1"></path> <path d="M342.843 205.861L256 205.264L312.973 324.58L340.015 308.967C342.405 307.586 343.879 305.036 343.879 302.276V209.7C343.873 208.328 343.509 207.008 342.843 205.861Z" fill="#24AE6B"></path> <path d="M256.004 205.264V356.278C257.338 356.278 258.672 355.933 259.867 355.242L312.973 324.581V223.108L256.004 205.264Z" fill="#4CF2A2"></path> <path d="M340.016 203.036L259.866 156.757C257.476 155.377 254.531 155.377 252.14 156.757L212.066 179.891L227.519 230.638H299.94L342.842 205.862C342.176 204.707 341.211 203.726 340.016 203.036Z" fill="#4CF2A2"></path> <path d="M212.073 179.894L171.99 203.036C170.796 203.725 169.831 204.707 169.164 205.861L256.003 256L299.94 230.637L212.073 179.894Z" fill="#99FFCE"></path> </svg> 