<?xml version="1.0" encoding="UTF-8"?> <svg xmlns="http://www.w3.org/2000/svg" width="512" height="512" viewBox="0 0 512 512" fill="none"> <path d="M416 266.048V245.544L422.896 242.96C457.056 230.152 480 197.04 480 160.56V120C488.824 120 496 112.824 496 104V88C496 79.176 488.824 72 480 72H479.528C475.528 36.056 444.992 8 408 8H344C307.008 8 276.464 36.056 272.472 72H272C263.176 72 256 79.176 256 88V104C256 112.824 263.176 120 272 120H288V133.576L276.104 151.408C273.416 155.448 272 160.144 272 164.984C272 174.824 277.472 183.672 286.28 188.088L288 188.944V208C288 230.056 305.944 248 328 248H352V264.992L342.576 266.248C297.144 272.312 259 301.92 241.672 344H184C184 303.385 201 240 201 240H248V176H136V200H120V176H72V128H120V48H8V128H56V176H8V240H120V216H136V240H201C201 240 184 303.385 184 344H152V280H112C89.944 280 72 297.944 72 320V464C72 486.056 89.944 504 112 504H344V472H419.216C465.968 472 504 433.96 504 387.208C504 331.968 468.112 283.008 416 266.048ZM24 64H104V112H24V64ZM104 224H24V192H104V224ZM152 192H232V224H152V192ZM464 160.56C464 190.4 445.224 217.496 417.28 227.976L416 228.456V212L434.136 198.4C442.816 191.88 448 181.512 448 170.664C448 152.448 433.872 137.472 416 136.104V120H464V160.56ZM344 24H408C436.152 24 459.456 44.912 463.36 72H288.64C292.544 44.912 315.848 24 344 24ZM272 88H480V104H272V88ZM328 232C314.768 232 304 221.232 304 208V179.056L293.44 173.776C290.08 172.096 288 168.728 288 164.984C288 163.304 288.496 161.68 289.416 160.288L304 138.424V120H400V152H413.336C423.624 152 432 160.376 432 170.664C432 176.504 429.208 182.096 424.528 185.6L400 204V272C400 280.824 392.824 288 384 288C375.176 288 368 280.824 368 272V232H328ZM112 296H136V344H112C98.768 344 88 333.232 88 320C88 306.768 98.768 296 112 296ZM328 488H112C98.768 488 88 477.232 88 464V351.792C94.704 356.872 102.96 360 112 360H328V392C310.352 392 296 406.352 296 424V440C296 457.648 310.352 472 328 472V488ZM360 456H328C319.176 456 312 448.824 312 440V424C312 415.176 319.176 408 328 408H342.056C346.328 408 350.344 409.664 353.376 412.688L360 419.312V456ZM419.216 456H376V424H407.032C420.104 424 432.4 418.904 441.656 409.656C450.904 400.416 456 388.12 456 375.032V352H440V375.032C440 383.848 436.568 392.12 430.344 398.344C424.2 404.48 415.704 408 407.032 408H371.312L364.688 401.376C359.104 395.792 351.808 392.664 344 392.192V344H259.184C275.392 310.456 307.192 287.112 344.696 282.112L353.432 280.952C357.328 294.224 369.48 304 384 304C398.008 304 409.808 294.896 414.136 282.344C458.024 298.072 488 340.016 488 387.208C488 425.144 457.144 456 419.216 456Z" fill="#0B0B0B"></path> <path d="M52 80H100V96H52V80Z" fill="#4CF2A2"></path> <path d="M404 336H436V352H404V336Z" fill="#4CF2A2"></path> </svg> 