<?xml version="1.0" encoding="UTF-8"?> <svg xmlns="http://www.w3.org/2000/svg" width="512" height="512" viewBox="0 0 512 512" fill="none"> <g clip-path="url(#clip0)"> <path d="M257.872 78.224C219.951 77.8862 183.405 92.4132 156.064 118.693C128.724 144.973 112.763 180.915 111.6 218.82C110.685 250.052 120.004 280.727 138.136 306.172C157.31 333.604 167.432 366.341 167.088 399.808V438.376C167.088 439.394 167.309 440.399 167.738 441.322C168.166 442.245 168.791 443.063 169.568 443.72L195.024 465.252V491.512C195.03 496.946 197.193 502.155 201.036 505.996C204.88 509.838 210.09 511.997 215.524 512H296.476C301.909 511.995 307.118 509.834 310.96 505.992C314.802 502.15 316.963 496.941 316.968 491.508V465.248L342.424 443.716C343.201 443.059 343.826 442.241 344.254 441.318C344.683 440.395 344.904 439.39 344.904 438.372V399.792C344.912 365.84 355.339 332.709 374.776 304.872C389.684 283.328 398.452 258.135 400.142 231.991C401.832 205.846 396.38 179.734 384.371 156.45C372.361 133.166 354.245 113.586 331.962 99.8064C309.679 86.027 284.069 78.5666 257.872 78.224ZM307.408 455.024H204.608L184.392 437.928H327.624L307.408 455.024ZM330.908 423.928H181.092V406.8H330.908V423.928ZM302.972 491.528C302.97 493.249 302.285 494.899 301.068 496.116C299.851 497.333 298.201 498.018 296.48 498.02H215.524C213.803 498.018 212.153 497.333 210.936 496.116C209.719 494.899 209.034 493.249 209.032 491.528V469.024H302.968L302.972 491.528ZM363.272 296.896C343.574 325.121 332.388 358.407 331.044 392.8H180.964C179.999 358.825 169.076 325.882 149.552 298.06C133.19 275.085 124.779 247.394 125.6 219.2C126.625 185.25 140.802 153.026 165.139 129.332C189.475 105.638 222.067 92.3283 256.032 92.212H257.692C281.35 92.5182 304.48 99.2526 324.605 111.694C344.73 124.136 361.093 141.816 371.942 162.843C382.79 183.87 387.717 207.451 386.193 231.062C384.669 254.674 376.753 277.426 363.292 296.884L363.272 296.896Z" fill="black"></path> <path d="M332.976 222.728C331.058 214.834 327.944 207.28 323.74 200.328L332.916 191.148C333.567 190.498 334.083 189.727 334.435 188.877C334.787 188.028 334.968 187.117 334.968 186.198C334.968 185.278 334.787 184.368 334.435 183.519C334.083 182.669 333.567 181.898 332.916 181.248L316.256 164.588C315.606 163.937 314.835 163.421 313.985 163.069C313.136 162.717 312.225 162.536 311.306 162.536C310.387 162.536 309.476 162.717 308.627 163.069C307.777 163.421 307.006 163.937 306.356 164.588L297.232 173.712C290.276 169.471 282.711 166.324 274.8 164.38V151.504C274.8 149.647 274.063 147.867 272.75 146.554C271.437 145.241 269.657 144.504 267.8 144.504H244.22C242.363 144.504 240.583 145.241 239.27 146.554C237.957 147.867 237.22 149.647 237.22 151.504V164.38C229.302 166.322 221.73 169.469 214.768 173.712L205.64 164.584C204.99 163.933 204.219 163.417 203.369 163.065C202.52 162.713 201.609 162.532 200.69 162.532C199.771 162.532 198.86 162.713 198.011 163.065C197.161 163.417 196.39 163.933 195.74 164.584L179.08 181.244C178.429 181.894 177.913 182.665 177.561 183.515C177.209 184.364 177.028 185.274 177.028 186.194C177.028 187.113 177.209 188.024 177.561 188.873C177.913 189.723 178.429 190.494 179.08 191.144L188.256 200.324C184.052 207.276 180.938 214.83 179.02 222.724H166C164.143 222.724 162.363 223.461 161.05 224.774C159.737 226.087 159 227.867 159 229.724V253.284C159 255.14 159.737 256.921 161.05 258.234C162.363 259.546 164.143 260.284 166 260.284H179.132C181.075 268.13 184.205 275.634 188.412 282.536L179.08 291.868C178.429 292.518 177.913 293.289 177.561 294.139C177.209 294.988 177.028 295.898 177.028 296.818C177.028 297.737 177.209 298.648 177.561 299.497C177.913 300.347 178.429 301.118 179.08 301.768L195.74 318.428C197.077 319.694 198.849 320.399 200.69 320.399C202.531 320.399 204.303 319.694 205.64 318.428L215.024 309.044C221.909 313.207 229.386 316.301 237.2 318.22V331.504C237.2 333.36 237.938 335.141 239.25 336.454C240.563 337.766 242.343 338.504 244.2 338.504H267.764C269.621 338.504 271.401 337.766 272.714 336.454C274.026 335.141 274.764 333.36 274.764 331.504V318.22C282.585 316.303 290.069 313.209 296.96 309.044L306.344 318.428C306.994 319.078 307.765 319.595 308.615 319.947C309.464 320.299 310.375 320.48 311.294 320.48C312.213 320.48 313.124 320.299 313.973 319.947C314.823 319.595 315.594 319.078 316.244 318.428L332.904 301.768C333.555 301.118 334.071 300.347 334.423 299.497C334.775 298.648 334.956 297.737 334.956 296.818C334.956 295.898 334.775 294.988 334.423 294.139C334.071 293.289 333.555 292.518 332.904 291.868L323.6 282.536C327.807 275.635 330.936 268.133 332.88 260.288H346C347.857 260.288 349.637 259.55 350.95 258.238C352.262 256.925 353 255.144 353 253.288V229.728C353 227.871 352.262 226.091 350.95 224.778C349.637 223.465 347.857 222.728 346 222.728H332.976ZM339 246.288H327.176C325.52 246.287 323.917 246.874 322.653 247.944C321.388 249.014 320.545 250.498 320.272 252.132C318.609 261.947 314.722 271.251 308.908 279.332C307.929 280.682 307.465 282.338 307.599 284.001C307.733 285.664 308.457 287.224 309.64 288.4L318.072 296.8L311.312 303.56L302.852 295.096C301.68 293.924 300.131 293.205 298.479 293.068C296.827 292.931 295.181 293.385 293.832 294.348C285.739 300.117 276.436 303.961 266.632 305.588C264.997 305.864 263.513 306.711 262.445 307.979C261.377 309.248 260.794 310.854 260.8 312.512V324.512H251.2V312.512C251.203 310.854 250.617 309.249 249.546 307.983C248.476 306.718 246.991 305.873 245.356 305.6C235.552 303.973 226.249 300.129 218.156 294.36C216.807 293.397 215.161 292.943 213.509 293.08C211.857 293.217 210.308 293.936 209.136 295.108L200.676 303.572L193.916 296.812L202.36 288.4C203.537 287.225 204.257 285.67 204.391 284.013C204.525 282.355 204.065 280.704 203.092 279.356C197.278 271.275 193.391 261.971 191.728 252.156C191.455 250.522 190.612 249.038 189.347 247.968C188.083 246.898 186.48 246.311 184.824 246.312H173V236.752H184.748C186.411 236.752 188.02 236.16 189.287 235.082C190.554 234.004 191.395 232.51 191.66 230.868C193.27 221.001 197.127 211.636 202.932 203.496C203.895 202.147 204.349 200.5 204.212 198.849C204.075 197.197 203.356 195.647 202.184 194.476L193.928 186.22L200.688 179.46L208.912 187.684C210.087 188.86 211.642 189.58 213.299 189.714C214.956 189.848 216.607 189.388 217.956 188.416C226.089 182.561 235.465 178.662 245.352 177.024C246.992 176.75 248.48 175.902 249.552 174.632C250.623 173.361 251.207 171.75 251.2 170.088V158.488H260.8V170.088C260.8 171.748 261.39 173.354 262.465 174.62C263.54 175.885 265.03 176.727 266.668 176.996C276.549 178.641 285.918 182.543 294.044 188.4C295.392 189.373 297.043 189.834 298.701 189.7C300.358 189.566 301.914 188.845 303.088 187.668L311.312 179.444L318.072 186.204L309.816 194.46C308.644 195.631 307.925 197.181 307.788 198.833C307.651 200.484 308.105 202.131 309.068 203.48C314.873 211.62 318.73 220.985 320.34 230.852C320.605 232.494 321.446 233.988 322.713 235.066C323.98 236.144 325.589 236.736 327.252 236.736H339V246.288Z" fill="black"></path> <path d="M256 192.1C246.269 192.1 236.757 194.986 228.666 200.392C220.575 205.798 214.269 213.482 210.545 222.472C206.821 231.462 205.847 241.355 207.745 250.899C209.644 260.442 214.329 269.209 221.21 276.09C228.091 282.97 236.858 287.656 246.401 289.555C255.945 291.453 265.838 290.479 274.828 286.755C283.818 283.031 291.502 276.725 296.908 268.634C302.314 260.543 305.2 251.031 305.2 241.3C305.182 228.257 299.993 215.753 290.77 206.53C281.547 197.307 269.043 192.118 256 192.1ZM256 276.524C249.038 276.524 242.232 274.46 236.444 270.592C230.655 266.724 226.143 261.227 223.479 254.795C220.815 248.363 220.118 241.285 221.476 234.457C222.834 227.629 226.187 221.357 231.11 216.434C236.032 211.511 242.305 208.159 249.133 206.8C255.961 205.442 263.038 206.139 269.47 208.804C275.902 211.468 281.4 215.979 285.268 221.768C289.135 227.557 291.2 234.362 291.2 241.324C291.187 250.656 287.475 259.602 280.876 266.202C274.278 272.801 265.332 276.514 256 276.528V276.524Z" fill="black"></path> <path d="M256 54.332C257.857 54.332 259.637 53.5945 260.95 52.2817C262.262 50.969 263 49.1885 263 47.332V7C263 5.14348 262.262 3.36301 260.95 2.05025C259.637 0.737498 257.857 0 256 0C254.143 0 252.363 0.737498 251.05 2.05025C249.737 3.36301 249 5.14348 249 7V47.332C249 49.1885 249.737 50.969 251.05 52.2817C252.363 53.5945 254.143 54.332 256 54.332Z" fill="#4CF2A2"></path> <path d="M427.12 74.98L398.6 103.5C397.95 104.15 397.434 104.922 397.083 105.771C396.731 106.62 396.55 107.531 396.55 108.45C396.55 109.369 396.731 110.28 397.083 111.129C397.434 111.978 397.95 112.75 398.6 113.4C399.25 114.05 400.022 114.566 400.871 114.918C401.721 115.269 402.631 115.45 403.55 115.45C404.469 115.45 405.38 115.269 406.229 114.918C407.078 114.566 407.85 114.05 408.5 113.4L437.02 84.88C437.67 84.23 438.186 83.4583 438.538 82.609C438.889 81.7596 439.07 80.8493 439.07 79.93C439.07 79.0107 438.889 78.1004 438.538 77.2511C438.186 76.4018 437.67 75.6301 437.02 74.98C436.37 74.33 435.598 73.8144 434.749 73.4626C433.9 73.1108 432.989 72.9297 432.07 72.9297C431.151 72.9297 430.241 73.1108 429.391 73.4626C428.542 73.8144 427.77 74.33 427.12 74.98Z" fill="#4CF2A2"></path> <path d="M505 249H464.668C462.811 249 461.031 249.737 459.718 251.05C458.405 252.363 457.668 254.143 457.668 256C457.668 257.857 458.405 259.637 459.718 260.95C461.031 262.262 462.811 263 464.668 263H505C506.856 263 508.637 262.262 509.95 260.95C511.262 259.637 512 257.857 512 256C512 254.143 511.262 252.363 509.95 251.05C508.637 249.737 506.856 249 505 249Z" fill="#4CF2A2"></path> <path d="M47.332 249H7C5.14348 249 3.36301 249.737 2.05025 251.05C0.737498 252.363 0 254.143 0 256C0 257.857 0.737498 259.637 2.05025 260.95C3.36301 262.262 5.14348 263 7 263H47.332C49.1885 263 50.969 262.262 52.2817 260.95C53.5945 259.637 54.332 257.857 54.332 256C54.332 254.143 53.5945 252.363 52.2817 251.05C50.969 249.737 49.1885 249 47.332 249Z" fill="#4CF2A2"></path> <path d="M113.4 103.5L84.88 74.98C83.5672 73.6672 81.7867 72.9297 79.93 72.9297C78.0734 72.9297 76.2929 73.6672 74.98 74.98C73.6672 76.2929 72.9297 78.0734 72.9297 79.93C72.9297 81.7867 73.6672 83.5672 74.98 84.88L103.5 113.4C104.813 114.713 106.593 115.45 108.45 115.45C110.307 115.45 112.087 114.713 113.4 113.4C114.713 112.087 115.45 110.307 115.45 108.45C115.45 106.593 114.713 104.813 113.4 103.5Z" fill="#4CF2A2"></path> </g> <defs> <clipPath id="clip0"> <rect width="512" height="512" fill="white"></rect> </clipPath> </defs> </svg> 