<?xml version="1.0" encoding="UTF-8"?> <svg xmlns="http://www.w3.org/2000/svg" width="480" height="480" viewBox="0 0 480 480" fill="none"> <path d="M472 432H464V408C464 403.582 460.418 400 456 400V144H464C468.418 144 472 140.418 472 136V104C472 99.582 468.418 96 464 96H360V48H376C380.418 48 384 44.418 384 40V8C384 3.582 380.418 0 376 0H104C99.582 0 96 3.582 96 8V40C96 44.418 99.582 48 104 48H120V96H16C11.582 96 8 99.582 8 104V136C8 140.418 11.582 144 16 144H24V400C19.582 400 16 403.582 16 408V432H8C3.582 432 0 435.582 0 440V472C0 476.418 3.582 480 8 480H472C476.418 480 480 476.418 480 472V440C480 435.582 476.418 432 472 432ZM456 112V128H360V112H456ZM440 144V400H360V144H440ZM112 32V16H368V32H112ZM240 288C209.072 288 184 313.072 184 344V400H136V48H344V400H296V344C296 313.072 270.928 288 240 288ZM280 344V400H200V344C200 321.909 217.909 304 240 304C262.091 304 280 321.909 280 344ZM448 416V432H32V416H448ZM40 400V144H120V400H40ZM24 112H120V128H24V112ZM464 464H16V448H464V464Z" fill="black"></path> <path d="M192 80H160C155.582 80 152 83.582 152 88V120C152 124.418 155.582 128 160 128H192C196.418 128 200 124.418 200 120V88C200 83.582 196.418 80 192 80ZM184 112H168V96H184V112Z" fill="#4CF2A2"></path> <path d="M256 80H224C219.582 80 216 83.582 216 88V120C216 124.418 219.582 128 224 128H256C260.418 128 264 124.418 264 120V88C264 83.582 260.418 80 256 80ZM248 112H232V96H248V112Z" fill="#4CF2A2"></path> <path d="M192 144H160C155.582 144 152 147.582 152 152V184C152 188.418 155.582 192 160 192H192C196.418 192 200 188.418 200 184V152C200 147.582 196.418 144 192 144ZM184 176H168V160H184V176Z" fill="#4CF2A2"></path> <path d="M256 144H224C219.582 144 216 147.582 216 152V184C216 188.418 219.582 192 224 192H256C260.418 192 264 188.418 264 184V152C264 147.582 260.418 144 256 144ZM248 176H232V160H248V176Z" fill="#4CF2A2"></path> <path d="M192 208H160C155.582 208 152 211.582 152 216V248C152 252.418 155.582 256 160 256H192C196.418 256 200 252.418 200 248V216C200 211.582 196.418 208 192 208ZM184 240H168V224H184V240Z" fill="#4CF2A2"></path> <path d="M256 208H224C219.582 208 216 211.582 216 216V248C216 252.418 219.582 256 224 256H256C260.418 256 264 252.418 264 248V216C264 211.582 260.418 208 256 208ZM248 240H232V224H248V240Z" fill="#4CF2A2"></path> <path d="M288 128H320C324.418 128 328 124.418 328 120V88C328 83.582 324.418 80 320 80H288C283.582 80 280 83.582 280 88V120C280 124.418 283.582 128 288 128ZM296 96H312V112H296V96Z" fill="#4CF2A2"></path> <path d="M288 192H320C324.418 192 328 188.418 328 184V152C328 147.582 324.418 144 320 144H288C283.582 144 280 147.582 280 152V184C280 188.418 283.582 192 288 192ZM296 160H312V176H296V160Z" fill="#4CF2A2"></path> <path d="M328 248V216C328 211.582 324.418 208 320 208H288C283.582 208 280 211.582 280 216V248C280 252.418 283.582 256 288 256H320C324.418 256 328 252.418 328 248ZM312 240H296V224H312V240Z" fill="#4CF2A2"></path> <path d="M384 208H416C420.418 208 424 204.418 424 200V168C424 163.582 420.418 160 416 160H384C379.582 160 376 163.582 376 168V200C376 204.418 379.582 208 384 208ZM392 176H408V192H392V176Z" fill="black"></path> <path d="M384 272H416C420.418 272 424 268.418 424 264V232C424 227.582 420.418 224 416 224H384C379.582 224 376 227.582 376 232V264C376 268.418 379.582 272 384 272ZM392 240H408V256H392V240Z" fill="black"></path> <path d="M384 336H416C420.418 336 424 332.418 424 328V296C424 291.582 420.418 288 416 288H384C379.582 288 376 291.582 376 296V328C376 332.418 379.582 336 384 336ZM392 304H408V320H392V304Z" fill="black"></path> <path d="M96 160H64C59.582 160 56 163.582 56 168V200C56 204.418 59.582 208 64 208H96C100.418 208 104 204.418 104 200V168C104 163.582 100.418 160 96 160ZM88 192H72V176H88V192Z" fill="black"></path> <path d="M96 224H64C59.582 224 56 227.582 56 232V264C56 268.418 59.582 272 64 272H96C100.418 272 104 268.418 104 264V232C104 227.582 100.418 224 96 224ZM88 256H72V240H88V256Z" fill="black"></path> <path d="M96 288H64C59.582 288 56 291.582 56 296V328C56 332.418 59.582 336 64 336H96C100.418 336 104 332.418 104 328V296C104 291.582 100.418 288 96 288ZM88 320H72V304H88V320Z" fill="black"></path> </svg> 